HIERARCHY
ROOT Hips
{
	OFFSET -0.179506 -22.333345 2.821913
	CHANNELS 6 Xposition Yposition Zposition Zrotation Yrotation Xrotation 
	JOINT LeftUpLeg
	{
		OFFSET 6.951974 -9.140623 -0.681533
		CHANNELS 3 Zrotation Yrotation Xrotation
		JOINT LeftLeg
		{
			OFFSET 3.427654 -37.519855 -0.449580
			CHANNELS 3 Zrotation Yrotation Xrotation
			JOINT LeftFoot
			{
				OFFSET -1.359570 -39.796059 -4.369333
				CHANNELS 3 Zrotation Yrotation Xrotation
				JOINT LeftToe
				{
					OFFSET 2.635814 -5.579078 11.928840
					CHANNELS 3 Zrotation Yrotation Xrotation
					End Site
					{
						OFFSET 0.000000 0.000000 0.000000
					}
				}
			}
		}
	}
	JOINT RightUpLeg
	{
		OFFSET -6.767048 -9.052170 -0.431982
		CHANNELS 3 Zrotation Yrotation Xrotation
		JOINT RightLeg
		{
			OFFSET -3.829005 -38.256897 -0.885003
			CHANNELS 3 Zrotation Yrotation Xrotation
			JOINT RightFoot
			{
				OFFSET 1.577377 -39.841461 -4.231180
				CHANNELS 3 Zrotation Yrotation Xrotation
				JOINT RightToe
				{
					OFFSET -2.537174 -4.814398 12.334795
					CHANNELS 3 Zrotation Yrotation Xrotation
					End Site
					{
						OFFSET 0.000000 0.000000 0.000000
					}
				}
			}
		}
	}
	JOINT Spine
	{
		OFFSET -0.253288 10.896323 -2.669631
		CHANNELS 3 Zrotation Yrotation Xrotation
		JOINT Spine1
		{
			OFFSET 0.548704 13.518043 0.109247
			CHANNELS 3 Zrotation Yrotation Xrotation
			JOINT Spine2
			{
				OFFSET 0.145701 5.292222 2.542457
				CHANNELS 3 Zrotation Yrotation Xrotation
				JOINT Neck
				{
					OFFSET -0.277840 21.387037 -4.285703
					CHANNELS 3 Zrotation Yrotation Xrotation
					JOINT Head
					{
						OFFSET 0.515184 6.496960 5.134897
						CHANNELS 3 Zrotation Yrotation Xrotation
						End Site
						{
							OFFSET 0.000000 0.000000 0.000000
						}
					}
				}
				JOINT LeftShoulder
				{
					OFFSET 7.884473 12.174932 -3.408961
					CHANNELS 3 Zrotation Yrotation Xrotation
					JOINT LeftArm
					{
						OFFSET 9.097692 3.046888 -0.886815
						CHANNELS 3 Zrotation Yrotation Xrotation
						JOINT LeftForeArm
						{
							OFFSET 25.961220 -1.277207 -2.745643
							CHANNELS 3 Zrotation Yrotation Xrotation
							JOINT LeftHand
							{
								OFFSET 24.923361 0.898606 -0.117091
								CHANNELS 3 Zrotation Yrotation Xrotation
								End Site
								{
									OFFSET 0.000000 0.000000 0.000000
								}
							}
						}
					}
				}
				JOINT RightShoulder
				{
					OFFSET -8.175920 11.883285 -3.861528
					CHANNELS 3 Zrotation Yrotation Xrotation
					JOINT RightArm
					{
						OFFSET -9.601238 3.255117 -0.914307
						CHANNELS 3 Zrotation Yrotation Xrotation
						JOINT RightForeArm
						{
							OFFSET -25.374195 -1.332924 -2.140099
							CHANNELS 3 Zrotation Yrotation Xrotation
							JOINT RightHand
							{
								OFFSET -25.529810 0.777228 -0.555919
								CHANNELS 3 Zrotation Yrotation Xrotation
								End Site
								{
									OFFSET 0.000000 0.000000 0.000000
								}
							}
						}
					}
				}
			}
		}
	}
}
MOTION
Frames: 12
Frame Time: 0.033333
115.047600 -77.912811 89.491753 -155.943858 2.929955 106.169223 14.758502 1.084065 -58.872590 -5.849422 21.256220 42.363190 0.993972 7.196112 -9.403318 nan nan nan -6.770492 -0.270685 19.422942 -0.713087 3.068541 11.436917 8.500206 -0.260754 8.639272 nan nan nan 0.602323 17.081738 15.239503 1.124447 -2.638175 13.362053 0.143890 -0.445220 -7.496998 -1.202774 9.550950 -4.304408 -1.169605 -5.527550 -23.453464 -17.260753 7.745731 8.930207 -65.979467 34.004967 8.143196 9.145395 -66.556250 7.448064 5.366629 -31.905509 -25.558483 21.227849 3.125843 1.036443 46.848657 -6.189681 7.087468 -163.351213 76.153647 -152.687749 -14.260072 31.768077 -26.546706 
113.111526 -75.652138 89.573822 -154.790773 3.385414 106.240728 14.391386 0.820378 -58.536330 -5.848452 21.045551 41.032708 0.839418 7.504162 -9.782619 nan nan nan -5.226456 -0.026451 18.742082 -0.762525 1.991002 16.002002 8.035373 -1.785881 6.766539 nan nan nan 0.937212 16.420114 14.714383 1.112032 -2.581826 12.673533 0.233320 -0.454215 -6.403463 -0.988671 9.287224 -4.574794 -0.798485 -5.342051 -22.893749 -17.441462 7.792215 8.266323 -66.723744 34.339025 7.542578 10.467171 -67.193065 5.954371 5.817258 -32.096480 -24.872283 21.113798 3.068475 0.672654 46.857947 -6.694542 7.238865 -163.505765 77.914111 -153.181186 -14.927052 32.048135 -26.887325 
111.187981 -73.367661 89.623703 -153.750051 3.968530 106.135680 14.052603 0.789365 -57.929288 -6.038019 20.918089 40.374287 0.776538 7.937921 -10.541686 nan nan nan -3.438834 0.575253 18.082124 -0.864677 0.991072 20.780477 7.737747 -2.597397 5.550495 nan nan nan 1.296238 15.654566 14.378487 1.155054 -2.465880 12.048257 0.284173 -0.319913 -5.239243 -0.740805 9.146957 -4.949855 -0.550427 -5.144019 -22.405102 -17.837203 7.726058 7.594569 -67.413754 34.224338 7.137844 12.791416 -67.730715 3.254302 5.491885 -31.754045 -24.346393 21.155717 3.088471 0.501435 46.980148 -7.221346 7.183900 -161.910888 79.846622 -151.674338 -14.608264 31.843967 -26.591769 
109.178619 -71.066460 89.617554 -153.000743 4.625573 105.866566 13.598169 1.006598 -56.994889 -6.206284 20.834081 40.433764 0.734530 8.415215 -11.514329 nan nan nan -1.707788 1.267224 17.265317 -1.029907 0.579950 25.891062 7.235658 -2.695253 5.190696 nan nan nan 1.803678 15.009286 14.112295 1.226131 -2.210438 11.989278 0.225035 -0.219881 -4.500294 -0.413639 9.041577 -5.091910 -0.538764 -4.975775 -22.210897 -18.273446 7.701691 6.979235 -67.985212 33.559154 7.172416 15.377568 -68.048862 0.095470 5.287487 -30.501187 -23.959414 21.223335 2.905494 0.412460 47.155891 -7.730595 7.262328 -157.793235 81.966378 -147.712827 -13.743340 30.861786 -26.530933 
107.167747 -68.718979 89.536438 -152.106970 5.191852 105.460502 13.042916 1.092034 -55.860800 -6.297336 20.667824 40.982440 0.808801 8.714584 -12.379266 nan nan nan 0.158699 1.860689 16.540032 -1.239888 0.365836 31.096360 6.716908 -2.753616 5.163495 nan nan nan 2.232353 14.189046 14.071987 1.298862 -2.072635 11.801790 0.157011 -0.059880 -3.711477 0.017432 8.861394 -4.820110 -0.501335 -4.648762 -22.357615 -18.766102 7.599763 6.374966 -68.344402 32.717457 7.297746 17.799200 -68.279463 -2.772545 5.071488 -29.478407 -22.970322 21.157822 2.700840 0.084989 47.596173 -8.239186 7.502592 -147.545914 84.352605 -137.700410 -13.087531 30.333333 -26.761063 
105.261856 -66.307281 89.449326 -150.837974 5.300821 104.939381 12.316341 0.686299 -54.459437 -6.757898 20.339588 41.586186 1.119573 9.103855 -12.882999 nan nan nan 1.845534 2.176262 15.958720 -1.347681 -0.065886 36.238121 6.333819 -2.883193 5.602570 nan nan nan 2.019670 13.166400 14.551593 1.477942 -2.160515 11.275899 0.304198 0.140946 -3.093376 0.336064 8.553500 -4.198589 -0.262319 -4.262431 -22.627756 -19.377910 7.342306 5.963748 -68.387020 31.797679 7.409375 20.235266 -68.260847 -5.153904 4.769646 -29.888633 -21.949815 21.206566 2.605213 -0.087172 48.028611 -8.883084 7.578679 -118.885718 86.262700 -108.040317 -12.084518 30.360178 -26.381892 
103.368797 -63.916763 89.375771 -149.579948 4.899418 104.435813 11.342995 -0.246093 -52.814750 -7.351360 20.036180 42.182242 1.476143 9.574382 -13.375565 nan nan nan 2.782894 2.439547 15.056167 -1.131835 -0.761831 41.728954 5.979641 -2.580717 6.035371 nan nan nan 1.258681 12.233347 15.078252 1.675312 -2.368424 11.224768 0.527676 0.197198 -2.953455 0.511514 8.542677 -3.345795 0.105291 -3.971819 -23.330845 -19.996989 7.125661 5.461402 -68.210128 30.663410 7.742818 22.619818 -67.964594 -7.306049 4.895617 -31.319978 -21.357460 21.539592 2.705150 0.115724 48.629193 -9.460695 7.880220 -67.366506 85.961861 -56.329470 -12.105978 30.697587 -26.456249 
101.509178 -61.534897 89.246994 -148.596593 4.553698 104.054305 10.545443 -1.017876 -51.129379 -8.108512 19.683567 42.934997 1.979950 9.861024 -13.890773 nan nan nan 3.412358 2.714670 13.572669 -0.770046 -1.502945 47.711473 5.778342 -2.346554 6.166020 nan nan nan 0.468178 11.486463 15.388793 1.815480 -2.435389 11.245012 0.749719 0.197032 -2.687930 0.833075 8.562882 -2.519182 0.325100 -3.732880 -24.167004 -20.527568 6.819654 4.709875 -67.974834 29.512063 8.378657 25.042980 -67.788754 -9.639225 5.279489 -32.069374 -20.966564 21.726666 2.839066 -0.003453 49.389594 -10.195963 8.481794 -42.280819 83.597490 -32.181458 -11.799985 29.639281 -28.442337 
99.645058 -59.144627 89.031898 -147.583332 4.194431 103.641917 9.686511 -1.818319 -49.388901 -9.009437 18.987023 43.917309 2.938390 9.978246 -14.881772 nan nan nan 3.754209 2.706345 11.790653 -0.496179 -2.377402 53.923219 5.118747 -2.249647 5.735656 nan nan nan -0.366182 10.875638 15.659861 2.046309 -2.531067 11.510951 0.978294 0.091375 -2.590720 1.120304 8.334664 -1.698182 0.494731 -3.181769 -24.782570 -20.932403 6.512509 4.066489 -67.801351 28.122740 8.984006 27.187070 -67.841625 -12.001022 5.762942 -31.914981 -20.260921 22.037100 2.742029 -0.305425 49.696260 -10.862531 9.150211 -29.691935 80.474068 -19.722422 -12.166243 29.009094 -29.014884 
97.726212 -56.810406 88.745888 -146.326292 3.636651 102.935323 8.565738 -3.057509 -47.283525 -9.857173 18.059217 44.928932 4.268972 10.145116 -16.543496 nan nan nan 3.643262 2.365381 10.168537 -0.250363 -3.524899 59.991511 4.795177 -2.541098 5.093350 nan nan nan -0.989000 10.173093 16.528983 2.176243 -2.770802 11.496497 1.094518 -0.134557 -2.279440 1.196156 7.857588 -1.217631 0.778612 -2.345667 -25.072602 -21.297397 6.087526 3.601548 -67.552904 26.540334 9.459868 28.954375 -68.182628 -14.711665 6.524454 -31.764651 -19.776799 22.317490 2.603995 -0.729284 49.822988 -11.469182 9.812473 -22.579623 77.300210 -13.010236 -12.298351 28.462609 -29.158797 
95.845665 -54.560162 88.391319 -145.067715 3.115865 102.132952 7.352434 -4.166449 -44.981525 -10.492850 17.130048 45.876087 5.280631 10.462977 -18.565684 nan nan nan 3.458729 2.005624 8.322353 -0.340067 -4.777010 66.128471 4.279683 -3.304127 4.103208 nan nan nan -1.397125 9.335316 17.861065 2.189811 -2.907465 11.315391 1.129567 -0.472860 -1.923700 1.272395 7.602984 -1.269829 1.043837 -1.811136 -25.052001 -21.591451 5.811079 3.047649 -67.158315 24.953148 10.102627 30.647063 -68.511020 -16.622747 8.570948 -33.220563 -20.294182 22.606493 2.395532 -1.134397 50.164200 -12.089576 10.665705 -18.441407 73.838235 -7.814420 -13.222475 29.220084 -29.248293 
93.929573 -52.342258 87.957123 -144.262882 2.350802 101.729929 5.838880 -4.904445 -42.805097 -11.261006 16.296516 46.327463 6.381802 11.347681 -20.590516 nan nan nan 2.760066 1.850683 5.663583 -0.534800 -5.656310 72.443504 3.587025 -4.316409 2.717329 nan nan nan -2.207710 8.840041 18.401400 2.132637 -2.925562 11.925367 1.194729 -0.939010 -2.022979 1.378371 7.114309 -1.136888 1.212793 -1.045691 -25.429657 -22.288506 5.370009 2.475644 -66.220931 23.603418 11.023263 33.910733 -69.554216 -20.291884 9.864801 -32.537112 -18.932567 22.994364 2.299702 -1.454063 50.577165 -12.802340 11.662780 -17.685266 71.015525 -8.171052 -12.577722 27.658275 -31.385823 
